<mxfile host="app.diagrams.net" modified="2023-05-09T15:27:44.319Z" agent="Mozilla/5.0 (Macintosh; Intel Mac OS X 10.15; rv:109.0) Gecko/20100101 Firefox/112.0" etag="-2Xac431EBltdmyHCsnc" version="21.2.9" type="github">
  <diagram name="Page-1" id="f7MPyd2C_M8G3kmu0htk">
    <mxGraphModel dx="1151" dy="749" grid="1" gridSize="10" guides="1" tooltips="1" connect="1" arrows="1" fold="1" page="1" pageScale="1" pageWidth="1169" pageHeight="827" math="0" shadow="0">
      <root>
        <mxCell id="0" />
        <mxCell id="1" parent="0" />
        <mxCell id="kiSaeBYo0xXXDGo0IAvy-76" value="" style="edgeStyle=orthogonalEdgeStyle;rounded=0;orthogonalLoop=1;jettySize=auto;html=1;" edge="1" parent="1" source="kiSaeBYo0xXXDGo0IAvy-42" target="kiSaeBYo0xXXDGo0IAvy-64">
          <mxGeometry relative="1" as="geometry" />
        </mxCell>
        <mxCell id="kiSaeBYo0xXXDGo0IAvy-79" style="edgeStyle=orthogonalEdgeStyle;rounded=0;orthogonalLoop=1;jettySize=auto;html=1;" edge="1" parent="1" source="kiSaeBYo0xXXDGo0IAvy-42" target="kiSaeBYo0xXXDGo0IAvy-3">
          <mxGeometry relative="1" as="geometry">
            <mxPoint x="850" y="320" as="targetPoint" />
            <Array as="points">
              <mxPoint x="851" y="102" />
              <mxPoint x="851" y="260" />
            </Array>
          </mxGeometry>
        </mxCell>
        <mxCell id="kiSaeBYo0xXXDGo0IAvy-42" value="" style="outlineConnect=0;dashed=0;verticalLabelPosition=bottom;verticalAlign=top;align=center;html=1;shape=mxgraph.aws3.workspaces;fillColor=#D16A28;gradientColor=#F58435;gradientDirection=north;" vertex="1" parent="1">
          <mxGeometry x="950" y="63.5" width="72" height="76.5" as="geometry" />
        </mxCell>
        <mxCell id="kiSaeBYo0xXXDGo0IAvy-73" style="edgeStyle=orthogonalEdgeStyle;rounded=0;orthogonalLoop=1;jettySize=auto;html=1;entryX=1;entryY=0.5;entryDx=0;entryDy=0;" edge="1" parent="1" source="kiSaeBYo0xXXDGo0IAvy-30" target="kiSaeBYo0xXXDGo0IAvy-29">
          <mxGeometry relative="1" as="geometry" />
        </mxCell>
        <mxCell id="kiSaeBYo0xXXDGo0IAvy-30" value="" style="rounded=0;whiteSpace=wrap;html=1;" vertex="1" parent="1">
          <mxGeometry x="420" y="50" width="190" height="540" as="geometry" />
        </mxCell>
        <mxCell id="kiSaeBYo0xXXDGo0IAvy-29" value="" style="rounded=0;whiteSpace=wrap;html=1;" vertex="1" parent="1">
          <mxGeometry x="160" y="50" width="190" height="540" as="geometry" />
        </mxCell>
        <mxCell id="kiSaeBYo0xXXDGo0IAvy-1" value="" style="sketch=0;outlineConnect=0;fontColor=#232F3E;gradientColor=none;fillColor=#D45B07;strokeColor=none;dashed=0;verticalLabelPosition=bottom;verticalAlign=top;align=center;html=1;fontSize=12;fontStyle=0;aspect=fixed;pointerEvents=1;shape=mxgraph.aws4.instance2;" vertex="1" parent="1">
          <mxGeometry x="485" y="60" width="100" height="100" as="geometry" />
        </mxCell>
        <mxCell id="kiSaeBYo0xXXDGo0IAvy-74" value="" style="edgeStyle=orthogonalEdgeStyle;rounded=0;orthogonalLoop=1;jettySize=auto;html=1;" edge="1" parent="1" source="kiSaeBYo0xXXDGo0IAvy-3" target="kiSaeBYo0xXXDGo0IAvy-30">
          <mxGeometry relative="1" as="geometry">
            <mxPoint x="612" y="298" as="targetPoint" />
          </mxGeometry>
        </mxCell>
        <mxCell id="kiSaeBYo0xXXDGo0IAvy-3" value="" style="verticalLabelPosition=bottom;sketch=0;aspect=fixed;html=1;verticalAlign=top;strokeColor=none;align=center;outlineConnect=0;shape=mxgraph.citrix.proxy_server;" vertex="1" parent="1">
          <mxGeometry x="660" y="250" width="76.5" height="90" as="geometry" />
        </mxCell>
        <mxCell id="kiSaeBYo0xXXDGo0IAvy-4" value="&lt;div&gt;Central Node Instance&lt;/div&gt;" style="text;html=1;strokeColor=none;fillColor=none;align=center;verticalAlign=middle;whiteSpace=wrap;rounded=0;" vertex="1" parent="1">
          <mxGeometry x="505" y="95" width="60" height="30" as="geometry" />
        </mxCell>
        <mxCell id="kiSaeBYo0xXXDGo0IAvy-5" value="" style="sketch=0;outlineConnect=0;fontColor=#232F3E;gradientColor=none;fillColor=#D45B07;strokeColor=none;dashed=0;verticalLabelPosition=bottom;verticalAlign=top;align=center;html=1;fontSize=12;fontStyle=0;aspect=fixed;pointerEvents=1;shape=mxgraph.aws4.instance2;" vertex="1" parent="1">
          <mxGeometry x="485" y="185" width="100" height="100" as="geometry" />
        </mxCell>
        <mxCell id="kiSaeBYo0xXXDGo0IAvy-6" value="&lt;div&gt;Central Node Instance&lt;/div&gt;" style="text;html=1;strokeColor=none;fillColor=none;align=center;verticalAlign=middle;whiteSpace=wrap;rounded=0;" vertex="1" parent="1">
          <mxGeometry x="505" y="220" width="60" height="30" as="geometry" />
        </mxCell>
        <mxCell id="kiSaeBYo0xXXDGo0IAvy-7" value="" style="sketch=0;outlineConnect=0;fontColor=#232F3E;gradientColor=none;fillColor=#D45B07;strokeColor=none;dashed=0;verticalLabelPosition=bottom;verticalAlign=top;align=center;html=1;fontSize=12;fontStyle=0;aspect=fixed;pointerEvents=1;shape=mxgraph.aws4.instance2;" vertex="1" parent="1">
          <mxGeometry x="485" y="310" width="100" height="100" as="geometry" />
        </mxCell>
        <mxCell id="kiSaeBYo0xXXDGo0IAvy-8" value="&lt;div&gt;Central Node Instance&lt;/div&gt;" style="text;html=1;strokeColor=none;fillColor=none;align=center;verticalAlign=middle;whiteSpace=wrap;rounded=0;" vertex="1" parent="1">
          <mxGeometry x="505" y="345" width="60" height="30" as="geometry" />
        </mxCell>
        <mxCell id="kiSaeBYo0xXXDGo0IAvy-10" value="" style="endArrow=none;dashed=1;html=1;dashPattern=1 3;strokeWidth=2;rounded=0;" edge="1" parent="1">
          <mxGeometry width="50" height="50" relative="1" as="geometry">
            <mxPoint x="525" y="450" as="sourcePoint" />
            <mxPoint x="555" y="450" as="targetPoint" />
          </mxGeometry>
        </mxCell>
        <mxCell id="kiSaeBYo0xXXDGo0IAvy-11" value="" style="sketch=0;outlineConnect=0;fontColor=#232F3E;gradientColor=none;fillColor=#D45B07;strokeColor=none;dashed=0;verticalLabelPosition=bottom;verticalAlign=top;align=center;html=1;fontSize=12;fontStyle=0;aspect=fixed;pointerEvents=1;shape=mxgraph.aws4.instance2;" vertex="1" parent="1">
          <mxGeometry x="485" y="480" width="100" height="100" as="geometry" />
        </mxCell>
        <mxCell id="kiSaeBYo0xXXDGo0IAvy-12" value="&lt;div&gt;Central Node Instance&lt;/div&gt;" style="text;html=1;strokeColor=none;fillColor=none;align=center;verticalAlign=middle;whiteSpace=wrap;rounded=0;" vertex="1" parent="1">
          <mxGeometry x="505" y="515" width="60" height="30" as="geometry" />
        </mxCell>
        <mxCell id="kiSaeBYo0xXXDGo0IAvy-13" value="" style="shape=flexArrow;endArrow=classic;html=1;rounded=0;" edge="1" parent="1">
          <mxGeometry width="50" height="50" relative="1" as="geometry">
            <mxPoint x="455" y="570" as="sourcePoint" />
            <mxPoint x="455" y="80" as="targetPoint" />
          </mxGeometry>
        </mxCell>
        <mxCell id="kiSaeBYo0xXXDGo0IAvy-14" value="Scales horizontally and vertically" style="edgeLabel;html=1;align=center;verticalAlign=middle;resizable=0;points=[];rotation=90;" vertex="1" connectable="0" parent="kiSaeBYo0xXXDGo0IAvy-13">
          <mxGeometry x="-0.0816" y="4" relative="1" as="geometry">
            <mxPoint x="14" y="-5" as="offset" />
          </mxGeometry>
        </mxCell>
        <mxCell id="kiSaeBYo0xXXDGo0IAvy-15" value="" style="image;aspect=fixed;perimeter=ellipsePerimeter;html=1;align=center;shadow=0;dashed=0;spacingTop=3;image=img/lib/active_directory/databases.svg;" vertex="1" parent="1">
          <mxGeometry x="220" y="505.5" width="50" height="49" as="geometry" />
        </mxCell>
        <mxCell id="kiSaeBYo0xXXDGo0IAvy-16" value="" style="image;aspect=fixed;perimeter=ellipsePerimeter;html=1;align=center;shadow=0;dashed=0;spacingTop=3;image=img/lib/active_directory/databases.svg;" vertex="1" parent="1">
          <mxGeometry x="220" y="414" width="50" height="49" as="geometry" />
        </mxCell>
        <mxCell id="kiSaeBYo0xXXDGo0IAvy-17" value="" style="image;aspect=fixed;perimeter=ellipsePerimeter;html=1;align=center;shadow=0;dashed=0;spacingTop=3;image=img/lib/active_directory/databases.svg;" vertex="1" parent="1">
          <mxGeometry x="220" y="326" width="50" height="49" as="geometry" />
        </mxCell>
        <mxCell id="kiSaeBYo0xXXDGo0IAvy-18" value="" style="image;aspect=fixed;perimeter=ellipsePerimeter;html=1;align=center;shadow=0;dashed=0;spacingTop=3;image=img/lib/active_directory/databases.svg;" vertex="1" parent="1">
          <mxGeometry x="220" y="250" width="50" height="49" as="geometry" />
        </mxCell>
        <mxCell id="kiSaeBYo0xXXDGo0IAvy-19" value="" style="image;aspect=fixed;perimeter=ellipsePerimeter;html=1;align=center;shadow=0;dashed=0;spacingTop=3;image=img/lib/active_directory/databases.svg;" vertex="1" parent="1">
          <mxGeometry x="220" y="171" width="50" height="49" as="geometry" />
        </mxCell>
        <mxCell id="kiSaeBYo0xXXDGo0IAvy-20" value="" style="image;aspect=fixed;perimeter=ellipsePerimeter;html=1;align=center;shadow=0;dashed=0;spacingTop=3;image=img/lib/active_directory/databases.svg;" vertex="1" parent="1">
          <mxGeometry x="220" y="85.5" width="50" height="49" as="geometry" />
        </mxCell>
        <mxCell id="kiSaeBYo0xXXDGo0IAvy-21" value="" style="shape=flexArrow;endArrow=classic;html=1;rounded=0;" edge="1" parent="1">
          <mxGeometry width="50" height="50" relative="1" as="geometry">
            <mxPoint x="190" y="560" as="sourcePoint" />
            <mxPoint x="190" y="70" as="targetPoint" />
          </mxGeometry>
        </mxCell>
        <mxCell id="kiSaeBYo0xXXDGo0IAvy-22" value="Scales horizontally and vertically" style="edgeLabel;html=1;align=center;verticalAlign=middle;resizable=0;points=[];rotation=90;" vertex="1" connectable="0" parent="kiSaeBYo0xXXDGo0IAvy-21">
          <mxGeometry x="-0.0816" y="4" relative="1" as="geometry">
            <mxPoint x="14" y="-5" as="offset" />
          </mxGeometry>
        </mxCell>
        <mxCell id="kiSaeBYo0xXXDGo0IAvy-23" value="DB shard" style="text;html=1;strokeColor=none;fillColor=none;align=center;verticalAlign=middle;whiteSpace=wrap;rounded=0;" vertex="1" parent="1">
          <mxGeometry x="270" y="95" width="60" height="30" as="geometry" />
        </mxCell>
        <mxCell id="kiSaeBYo0xXXDGo0IAvy-24" value="DB shard" style="text;html=1;strokeColor=none;fillColor=none;align=center;verticalAlign=middle;whiteSpace=wrap;rounded=0;" vertex="1" parent="1">
          <mxGeometry x="270" y="180.5" width="60" height="30" as="geometry" />
        </mxCell>
        <mxCell id="kiSaeBYo0xXXDGo0IAvy-25" value="DB shard" style="text;html=1;strokeColor=none;fillColor=none;align=center;verticalAlign=middle;whiteSpace=wrap;rounded=0;" vertex="1" parent="1">
          <mxGeometry x="270" y="255" width="60" height="30" as="geometry" />
        </mxCell>
        <mxCell id="kiSaeBYo0xXXDGo0IAvy-26" value="DB shard" style="text;html=1;strokeColor=none;fillColor=none;align=center;verticalAlign=middle;whiteSpace=wrap;rounded=0;" vertex="1" parent="1">
          <mxGeometry x="270" y="326" width="60" height="30" as="geometry" />
        </mxCell>
        <mxCell id="kiSaeBYo0xXXDGo0IAvy-27" value="DB shard" style="text;html=1;strokeColor=none;fillColor=none;align=center;verticalAlign=middle;whiteSpace=wrap;rounded=0;" vertex="1" parent="1">
          <mxGeometry x="270" y="414" width="60" height="30" as="geometry" />
        </mxCell>
        <mxCell id="kiSaeBYo0xXXDGo0IAvy-28" value="DB shard" style="text;html=1;strokeColor=none;fillColor=none;align=center;verticalAlign=middle;whiteSpace=wrap;rounded=0;" vertex="1" parent="1">
          <mxGeometry x="270" y="505.5" width="60" height="30" as="geometry" />
        </mxCell>
        <mxCell id="kiSaeBYo0xXXDGo0IAvy-33" value="Reverse proxy" style="text;html=1;strokeColor=none;fillColor=none;align=center;verticalAlign=middle;whiteSpace=wrap;rounded=0;" vertex="1" parent="1">
          <mxGeometry x="660" y="345" width="60" height="30" as="geometry" />
        </mxCell>
        <mxCell id="kiSaeBYo0xXXDGo0IAvy-35" value="" style="shape=image;html=1;verticalAlign=top;verticalLabelPosition=bottom;labelBackgroundColor=#ffffff;imageAspect=0;aspect=fixed;image=https://cdn1.iconfinder.com/data/icons/ionicons-fill-vol-2/512/wallet-128.png" vertex="1" parent="1">
          <mxGeometry x="950" y="120" width="40" height="40" as="geometry" />
        </mxCell>
        <mxCell id="kiSaeBYo0xXXDGo0IAvy-37" value="&lt;div&gt;Client with wallet to sign transaction.&lt;/div&gt;" style="text;html=1;strokeColor=none;fillColor=none;align=center;verticalAlign=middle;whiteSpace=wrap;rounded=0;" vertex="1" parent="1">
          <mxGeometry x="921" y="33.5" width="130" height="30" as="geometry" />
        </mxCell>
        <mxCell id="kiSaeBYo0xXXDGo0IAvy-81" style="edgeStyle=orthogonalEdgeStyle;rounded=0;orthogonalLoop=1;jettySize=auto;html=1;" edge="1" parent="1" source="kiSaeBYo0xXXDGo0IAvy-43" target="kiSaeBYo0xXXDGo0IAvy-3">
          <mxGeometry relative="1" as="geometry" />
        </mxCell>
        <mxCell id="kiSaeBYo0xXXDGo0IAvy-43" value="" style="sketch=0;html=1;dashed=0;whitespace=wrap;fillColor=#2875E2;strokeColor=#ffffff;points=[[0.005,0.63,0],[0.1,0.2,0],[0.9,0.2,0],[0.5,0,0],[0.995,0.63,0],[0.72,0.99,0],[0.5,1,0],[0.28,0.99,0]];verticalLabelPosition=bottom;align=center;verticalAlign=top;shape=mxgraph.kubernetes.icon;prIcon=api" vertex="1" parent="1">
          <mxGeometry x="950" y="330" width="80" height="70" as="geometry" />
        </mxCell>
        <mxCell id="kiSaeBYo0xXXDGo0IAvy-44" value="" style="shape=image;html=1;verticalAlign=top;verticalLabelPosition=bottom;labelBackgroundColor=#ffffff;imageAspect=0;aspect=fixed;image=https://cdn1.iconfinder.com/data/icons/ionicons-fill-vol-2/512/wallet-128.png" vertex="1" parent="1">
          <mxGeometry x="940" y="374" width="40" height="40" as="geometry" />
        </mxCell>
        <mxCell id="kiSaeBYo0xXXDGo0IAvy-45" value="&lt;div&gt;Application with wallet to sign transaction.&lt;br&gt;&lt;/div&gt;" style="text;html=1;strokeColor=none;fillColor=none;align=center;verticalAlign=middle;whiteSpace=wrap;rounded=0;" vertex="1" parent="1">
          <mxGeometry x="921" y="299" width="130" height="30" as="geometry" />
        </mxCell>
        <mxCell id="kiSaeBYo0xXXDGo0IAvy-83" style="edgeStyle=orthogonalEdgeStyle;rounded=0;orthogonalLoop=1;jettySize=auto;html=1;" edge="1" parent="1" source="kiSaeBYo0xXXDGo0IAvy-46" target="kiSaeBYo0xXXDGo0IAvy-3">
          <mxGeometry relative="1" as="geometry">
            <mxPoint x="800" y="400" as="targetPoint" />
            <Array as="points">
              <mxPoint x="870" y="487" />
              <mxPoint x="870" y="310" />
            </Array>
          </mxGeometry>
        </mxCell>
        <mxCell id="kiSaeBYo0xXXDGo0IAvy-46" value="" style="sketch=0;html=1;dashed=0;whitespace=wrap;fillColor=#2875E2;strokeColor=#ffffff;points=[[0.005,0.63,0],[0.1,0.2,0],[0.9,0.2,0],[0.5,0,0],[0.995,0.63,0],[0.72,0.99,0],[0.5,1,0],[0.28,0.99,0]];verticalLabelPosition=bottom;align=center;verticalAlign=top;shape=mxgraph.kubernetes.icon;prIcon=api" vertex="1" parent="1">
          <mxGeometry x="954" y="451.5" width="80" height="70" as="geometry" />
        </mxCell>
        <mxCell id="kiSaeBYo0xXXDGo0IAvy-47" value="" style="shape=image;html=1;verticalAlign=top;verticalLabelPosition=bottom;labelBackgroundColor=#ffffff;imageAspect=0;aspect=fixed;image=https://cdn1.iconfinder.com/data/icons/ionicons-fill-vol-2/512/wallet-128.png" vertex="1" parent="1">
          <mxGeometry x="944" y="495.5" width="40" height="40" as="geometry" />
        </mxCell>
        <mxCell id="kiSaeBYo0xXXDGo0IAvy-48" value="&lt;div&gt;Application with wallet to sign transaction.&lt;br&gt;&lt;/div&gt;" style="text;html=1;strokeColor=none;fillColor=none;align=center;verticalAlign=middle;whiteSpace=wrap;rounded=0;" vertex="1" parent="1">
          <mxGeometry x="925" y="420.5" width="130" height="30" as="geometry" />
        </mxCell>
        <mxCell id="kiSaeBYo0xXXDGo0IAvy-84" style="edgeStyle=orthogonalEdgeStyle;rounded=0;orthogonalLoop=1;jettySize=auto;html=1;" edge="1" parent="1" source="kiSaeBYo0xXXDGo0IAvy-49" target="kiSaeBYo0xXXDGo0IAvy-3">
          <mxGeometry relative="1" as="geometry">
            <mxPoint x="830" y="270" as="targetPoint" />
            <Array as="points">
              <mxPoint x="831" y="602" />
              <mxPoint x="831" y="320" />
            </Array>
          </mxGeometry>
        </mxCell>
        <mxCell id="kiSaeBYo0xXXDGo0IAvy-49" value="" style="sketch=0;html=1;dashed=0;whitespace=wrap;fillColor=#2875E2;strokeColor=#ffffff;points=[[0.005,0.63,0],[0.1,0.2,0],[0.9,0.2,0],[0.5,0,0],[0.995,0.63,0],[0.72,0.99,0],[0.5,1,0],[0.28,0.99,0]];verticalLabelPosition=bottom;align=center;verticalAlign=top;shape=mxgraph.kubernetes.icon;prIcon=api" vertex="1" parent="1">
          <mxGeometry x="950" y="566.5" width="80" height="70" as="geometry" />
        </mxCell>
        <mxCell id="kiSaeBYo0xXXDGo0IAvy-50" value="" style="shape=image;html=1;verticalAlign=top;verticalLabelPosition=bottom;labelBackgroundColor=#ffffff;imageAspect=0;aspect=fixed;image=https://cdn1.iconfinder.com/data/icons/ionicons-fill-vol-2/512/wallet-128.png" vertex="1" parent="1">
          <mxGeometry x="940" y="610.5" width="40" height="40" as="geometry" />
        </mxCell>
        <mxCell id="kiSaeBYo0xXXDGo0IAvy-51" value="&lt;div&gt;Application with wallet to sign transaction.&lt;br&gt;&lt;/div&gt;" style="text;html=1;strokeColor=none;fillColor=none;align=center;verticalAlign=middle;whiteSpace=wrap;rounded=0;" vertex="1" parent="1">
          <mxGeometry x="921" y="535.5" width="130" height="30" as="geometry" />
        </mxCell>
        <mxCell id="kiSaeBYo0xXXDGo0IAvy-80" style="edgeStyle=orthogonalEdgeStyle;rounded=0;orthogonalLoop=1;jettySize=auto;html=1;" edge="1" parent="1" source="kiSaeBYo0xXXDGo0IAvy-52" target="kiSaeBYo0xXXDGo0IAvy-3">
          <mxGeometry relative="1" as="geometry">
            <Array as="points">
              <mxPoint x="843" y="239" />
              <mxPoint x="843" y="280" />
            </Array>
          </mxGeometry>
        </mxCell>
        <mxCell id="kiSaeBYo0xXXDGo0IAvy-87" style="edgeStyle=orthogonalEdgeStyle;rounded=0;orthogonalLoop=1;jettySize=auto;html=1;" edge="1" parent="1" source="kiSaeBYo0xXXDGo0IAvy-52" target="kiSaeBYo0xXXDGo0IAvy-86">
          <mxGeometry relative="1" as="geometry" />
        </mxCell>
        <mxCell id="kiSaeBYo0xXXDGo0IAvy-52" value="" style="outlineConnect=0;dashed=0;verticalLabelPosition=bottom;verticalAlign=top;align=center;html=1;shape=mxgraph.aws3.workspaces;fillColor=#D16A28;gradientColor=#F58435;gradientDirection=north;" vertex="1" parent="1">
          <mxGeometry x="950" y="201" width="72" height="76.5" as="geometry" />
        </mxCell>
        <mxCell id="kiSaeBYo0xXXDGo0IAvy-53" value="" style="shape=image;html=1;verticalAlign=top;verticalLabelPosition=bottom;labelBackgroundColor=#ffffff;imageAspect=0;aspect=fixed;image=https://cdn1.iconfinder.com/data/icons/ionicons-fill-vol-2/512/wallet-128.png" vertex="1" parent="1">
          <mxGeometry x="950" y="257.5" width="40" height="40" as="geometry" />
        </mxCell>
        <mxCell id="kiSaeBYo0xXXDGo0IAvy-54" value="&lt;div&gt;Client with wallet to sign transaction.&lt;/div&gt;" style="text;html=1;strokeColor=none;fillColor=none;align=center;verticalAlign=middle;whiteSpace=wrap;rounded=0;" vertex="1" parent="1">
          <mxGeometry x="921" y="171" width="130" height="30" as="geometry" />
        </mxCell>
        <mxCell id="kiSaeBYo0xXXDGo0IAvy-75" value="" style="edgeStyle=orthogonalEdgeStyle;rounded=0;orthogonalLoop=1;jettySize=auto;html=1;" edge="1" parent="1" source="kiSaeBYo0xXXDGo0IAvy-60" target="kiSaeBYo0xXXDGo0IAvy-3">
          <mxGeometry relative="1" as="geometry" />
        </mxCell>
        <mxCell id="kiSaeBYo0xXXDGo0IAvy-60" value="" style="rounded=0;whiteSpace=wrap;html=1;" vertex="1" parent="1">
          <mxGeometry x="634.13" width="155.87" height="173.5" as="geometry" />
        </mxCell>
        <mxCell id="kiSaeBYo0xXXDGo0IAvy-61" value="" style="sketch=0;outlineConnect=0;fontColor=#232F3E;gradientColor=none;fillColor=#D45B07;strokeColor=none;dashed=0;verticalLabelPosition=bottom;verticalAlign=top;align=center;html=1;fontSize=12;fontStyle=0;aspect=fixed;pointerEvents=1;shape=mxgraph.aws4.instance2;" vertex="1" parent="1">
          <mxGeometry x="660" y="10" width="100" height="100" as="geometry" />
        </mxCell>
        <mxCell id="kiSaeBYo0xXXDGo0IAvy-62" value="&lt;div&gt;Validator Node Instance&lt;/div&gt;" style="text;html=1;strokeColor=none;fillColor=none;align=center;verticalAlign=middle;whiteSpace=wrap;rounded=0;" vertex="1" parent="1">
          <mxGeometry x="680" y="45" width="60" height="30" as="geometry" />
        </mxCell>
        <mxCell id="kiSaeBYo0xXXDGo0IAvy-77" value="" style="edgeStyle=orthogonalEdgeStyle;rounded=0;orthogonalLoop=1;jettySize=auto;html=1;entryX=1.013;entryY=0.548;entryDx=0;entryDy=0;entryPerimeter=0;" edge="1" parent="1" source="kiSaeBYo0xXXDGo0IAvy-64" target="kiSaeBYo0xXXDGo0IAvy-60">
          <mxGeometry relative="1" as="geometry" />
        </mxCell>
        <mxCell id="kiSaeBYo0xXXDGo0IAvy-64" value="WebHook" style="text;html=1;strokeColor=none;fillColor=none;align=center;verticalAlign=middle;whiteSpace=wrap;rounded=0;" vertex="1" parent="1">
          <mxGeometry x="830" y="50" width="60" height="30" as="geometry" />
        </mxCell>
        <mxCell id="kiSaeBYo0xXXDGo0IAvy-66" value="" style="image;aspect=fixed;perimeter=ellipsePerimeter;html=1;align=center;shadow=0;dashed=0;spacingTop=3;image=img/lib/active_directory/databases.svg;" vertex="1" parent="1">
          <mxGeometry x="640" y="115.5" width="50" height="49" as="geometry" />
        </mxCell>
        <mxCell id="kiSaeBYo0xXXDGo0IAvy-71" style="edgeStyle=orthogonalEdgeStyle;rounded=0;orthogonalLoop=1;jettySize=auto;html=1;exitX=0.5;exitY=0;exitDx=0;exitDy=0;entryX=0.5;entryY=1;entryDx=0;entryDy=0;" edge="1" parent="1" source="kiSaeBYo0xXXDGo0IAvy-67" target="kiSaeBYo0xXXDGo0IAvy-33">
          <mxGeometry relative="1" as="geometry" />
        </mxCell>
        <mxCell id="kiSaeBYo0xXXDGo0IAvy-67" value="" style="rounded=0;whiteSpace=wrap;html=1;" vertex="1" parent="1">
          <mxGeometry x="644.13" y="514.75" width="155.87" height="173.5" as="geometry" />
        </mxCell>
        <mxCell id="kiSaeBYo0xXXDGo0IAvy-68" value="" style="sketch=0;outlineConnect=0;fontColor=#232F3E;gradientColor=none;fillColor=#D45B07;strokeColor=none;dashed=0;verticalLabelPosition=bottom;verticalAlign=top;align=center;html=1;fontSize=12;fontStyle=0;aspect=fixed;pointerEvents=1;shape=mxgraph.aws4.instance2;" vertex="1" parent="1">
          <mxGeometry x="670" y="524.75" width="100" height="100" as="geometry" />
        </mxCell>
        <mxCell id="kiSaeBYo0xXXDGo0IAvy-69" value="&lt;div&gt;Validator Node Instance&lt;/div&gt;" style="text;html=1;strokeColor=none;fillColor=none;align=center;verticalAlign=middle;whiteSpace=wrap;rounded=0;" vertex="1" parent="1">
          <mxGeometry x="690" y="559.75" width="60" height="30" as="geometry" />
        </mxCell>
        <mxCell id="kiSaeBYo0xXXDGo0IAvy-70" value="" style="image;aspect=fixed;perimeter=ellipsePerimeter;html=1;align=center;shadow=0;dashed=0;spacingTop=3;image=img/lib/active_directory/databases.svg;" vertex="1" parent="1">
          <mxGeometry x="650" y="630.25" width="50" height="49" as="geometry" />
        </mxCell>
        <mxCell id="kiSaeBYo0xXXDGo0IAvy-90" style="edgeStyle=orthogonalEdgeStyle;rounded=0;orthogonalLoop=1;jettySize=auto;html=1;entryX=1;entryY=1;entryDx=0;entryDy=0;" edge="1" parent="1" source="kiSaeBYo0xXXDGo0IAvy-86" target="kiSaeBYo0xXXDGo0IAvy-60">
          <mxGeometry relative="1" as="geometry" />
        </mxCell>
        <mxCell id="kiSaeBYo0xXXDGo0IAvy-86" value="WebHook" style="text;html=1;strokeColor=none;fillColor=none;align=center;verticalAlign=middle;whiteSpace=wrap;rounded=0;" vertex="1" parent="1">
          <mxGeometry x="750" y="210" width="60" height="30.5" as="geometry" />
        </mxCell>
      </root>
    </mxGraphModel>
  </diagram>
</mxfile>
